<svg width="427" height="405" viewBox="0 0 427 405" fill="none" xmlns="http://www.w3.org/2000/svg">
<g clip-path="url(#clip0)">
<path d="M408.91 202.354C408.91 314.119 318.304 404.716 206.547 404.716C170.948 404.733 135.975 395.354 105.162 377.527C74.3478 359.7 48.7848 334.057 31.055 303.187C26.0746 294.557 21.755 285.563 18.133 276.281C17.955 275.852 17.785 275.433 17.624 275.005C16.589 272.336 15.624 269.632 14.706 266.911C14.34 265.84 13.983 264.769 13.644 263.689C9.5925 250.93 6.8274 237.798 5.39 224.489C5.345 224.115 5.3 223.731 5.265 223.356C5.122 221.937 4.988 220.509 4.872 219.081C4.783 218.046 4.711 217.002 4.64 215.958C4.33666 211.46 4.185 206.927 4.185 202.358C4.18737 166.995 13.4531 132.25 31.0595 101.581C48.666 70.9127 73.9989 45.3913 104.536 27.558C105.136 27.201 105.736 26.858 106.336 26.513C117.954 19.877 130.205 14.4166 142.907 10.213C146.833 8.91034 150.81 7.72934 154.838 6.67001C156.614 6.19667 158.405 5.75367 160.211 5.34101C206.833 -5.61833 255.83 0.302217 298.5 22.051C301.954 23.809 305.345 25.675 308.674 27.62C308.7 27.638 308.736 27.656 308.763 27.674C339.256 45.5093 364.547 71.0199 382.117 101.667C399.688 132.314 408.925 167.028 408.91 202.354V202.354Z" fill="#066487"/>
<path d="M49.226 233.362C48.751 233.408 48.275 233.439 47.797 233.439C47.2546 233.439 46.7126 233.411 46.173 233.356C52.0828 265.123 67.3032 294.415 89.9 317.511C90.0487 316.29 90.2674 315.078 90.555 313.882C69.3119 291.582 54.9606 263.622 49.226 233.362V233.362Z" fill="white"/>
<path d="M46.485 201.048C46.6721 188.456 48.3471 175.931 51.475 163.732C50.6143 162.903 49.8124 162.015 49.075 161.074C45.5084 174.302 43.6269 187.927 43.475 201.626C44.4569 201.335 45.4651 201.142 46.485 201.048Z" fill="white"/>
<path d="M250.474 48.913C250.722 48.1492 251.019 47.402 251.362 46.676C228.049 40.0352 203.548 38.676 179.643 42.6972C155.739 46.7185 133.031 56.019 113.174 69.922C114.041 70.5125 114.872 71.155 115.662 71.846C135.055 58.4356 157.172 49.4758 180.43 45.6071C203.689 41.7384 227.515 43.0564 250.205 49.467C250.3 49.282 250.378 49.1 250.474 48.913Z" fill="white"/>
<path d="M366.763 206.214C366.991 206.203 367.218 206.176 367.447 206.176C368.222 206.182 368.995 206.244 369.761 206.361C369.776 205.445 369.791 204.53 369.791 203.611C369.781 176.641 363.085 150.093 350.303 126.345C337.52 102.596 319.049 82.3866 296.543 67.525C296.469 67.674 296.403 67.825 296.325 67.975C296.06 68.7849 295.741 69.576 295.37 70.343C317.329 84.9568 335.339 104.768 347.798 128.018C360.258 151.267 366.782 177.234 366.791 203.611C366.791 204.481 366.776 205.347 366.763 206.214Z" fill="white"/>
<path d="M363.069 238.017C357.824 261.818 347.2 284.103 332.01 303.163C332.784 303.8 333.523 304.478 334.223 305.195C349.79 285.717 360.67 262.92 366.023 238.566C365.023 238.477 364.034 238.294 363.069 238.017Z" fill="white"/>
<path d="M281.3 348.651C280.614 347.897 279.971 347.105 279.375 346.278C261.636 355.368 242.346 361.04 222.51 363C222.572 364.002 222.578 365.007 222.53 366.01C243.046 364.017 262.994 358.125 281.3 348.651V348.651Z" fill="white"/>
<path d="M88.375 129.673H314.684V263.662C314.684 265.302 314.033 266.874 312.873 268.033C311.714 269.193 310.142 269.844 308.502 269.844H94.557C92.9174 269.844 91.345 269.193 90.1857 268.033C89.0263 266.874 88.375 265.302 88.375 263.662V129.673Z" fill="white"/>
<path d="M93.6 116.879H309.462C310.847 116.879 312.175 117.429 313.155 118.408C314.134 119.388 314.684 120.716 314.684 122.101V129.673H88.375V122.1C88.3751 121.414 88.5104 120.735 88.7731 120.101C89.0357 119.468 89.4207 118.892 89.9059 118.407C90.3911 117.922 90.9671 117.538 91.6009 117.276C92.2348 117.013 92.9141 116.879 93.6 116.879V116.879Z" fill="#333333"/>
<path d="M347.855 138.281V137.781H339.034V119.39H338.534V137.781H322.078V119.39H321.578V137.781H305.121V119.39H304.621V137.781H288.164V119.39H287.664V137.781H271.207V119.39H270.707V137.781H254.251V119.39H253.751V137.781H237.294V119.39H236.794V137.781H220.336V119.39H219.836V137.781H203.38V119.39H202.88V137.781H186.423V119.39H185.923V137.781H169.466V119.39H168.966V137.781H152.509V119.39H152.009V137.781H135.553V119.39H135.053V137.781H118.6V119.39H118.1V137.781H101.639V119.39H101.139V137.781H84.683V119.815C84.516 119.846 84.349 119.878 84.183 119.915V137.783H66C65.962 137.95 65.92 138.115 65.885 138.283H84.185V154.358H65.385V154.858H84.185V170.933H65.385V171.433H84.185V187.507H65.385V188.007H84.185V204.08H65.385V204.58H84.185V220.654H65.385V221.154H84.185V237.23H65.385V237.73H84.185V253.8H65.385V254.3H84.185V270.375H65.385V270.875H84.185V284.422H84.685V270.879H101.141V284.426H101.641V270.879H118.1V284.426H118.6V270.879H135.057V284.426H135.557V270.879H152.013V284.426H152.513V270.879H168.97V284.426H169.47V270.879H185.927V284.426H186.427V270.879H202.88V284.426H203.38V270.879H219.836V284.426H220.336V270.879H236.794V284.426H237.294V270.879H253.751V284.426H254.251V270.879H270.707V284.426H271.207V270.879H287.664V284.426H288.164V270.879H304.621V284.426H305.121V270.879H321.578V284.426H322.078V270.879H338.534V279.525C338.702 279.396 338.869 279.265 339.034 279.132V270.879H345.547C345.626 270.714 345.698 270.546 345.773 270.379H339.034V254.3H347.855V253.8H339.034V237.73H347.855V237.23H339.034V221.154H347.855V220.654H339.034V204.58H347.855V204.08H339.034V188.005H347.855V187.505H339.034V171.431H347.855V170.931H339.034V154.856H347.855V154.356H339.034V138.281H347.855ZM321.578 138.281V154.356H305.121V138.281H321.578ZM253.751 204.081H237.294V188.005H253.751V204.081ZM254.251 188.006H270.707V204.08H254.251V188.006ZM236.794 204.08H220.336V188.005H236.794V204.08ZM219.836 204.08H203.38V188.005H219.836V204.08ZM202.88 204.08H186.423V188.005H202.88V204.08ZM185.923 204.08H169.466V188.005H185.923V204.08ZM168.966 204.08H152.509V188.005H168.966V204.08ZM152.009 204.08H135.553V188.005H152.009V204.08ZM152.009 204.58V220.654H135.553V204.58H152.009ZM152.509 204.58H168.966V220.654H152.509V204.58ZM169.466 204.58H185.923V220.654H169.466V204.58ZM186.423 204.58H202.88V220.654H186.423V204.58ZM203.38 204.58H219.836V220.654H203.38V204.58ZM220.336 204.58H236.794V220.654H220.336V204.58ZM237.294 204.58H253.751V220.654H237.294V204.58ZM254.251 204.58H270.707V220.654H254.251V204.58ZM271.207 204.58H287.664V220.654H271.207V204.58ZM271.207 204.08V188.005H287.664V204.08H271.207ZM271.207 187.505V171.431H287.664V187.505H271.207ZM270.707 187.505H254.251V171.431H270.707V187.505ZM253.751 187.505H237.294V171.431H253.751V187.505ZM236.794 187.505H220.336V171.431H236.794V187.505ZM219.836 187.505H203.38V171.431H219.836V187.505ZM202.88 187.505H186.423V171.431H202.88V187.505ZM185.923 187.505H169.466V171.431H185.923V187.505ZM168.966 187.505H152.509V171.431H168.966V187.505ZM152.009 187.505H135.553V171.431H152.009V187.505ZM135.053 187.505H118.6V171.431H135.057L135.053 187.505ZM135.053 188.005V204.08H118.6V188.005H135.053ZM135.053 204.58V220.654H118.6V204.58H135.053ZM135.053 221.154V237.23H118.6V221.154H135.053ZM135.553 221.154H152.009V237.23H135.553V221.154ZM152.509 221.154H168.966V237.23H152.509V221.154ZM169.466 221.154H185.923V237.23H169.466V221.154ZM186.423 221.154H202.88V237.23H186.423V221.154ZM203.38 221.154H219.836V237.23H203.38V221.154ZM220.336 221.154H236.794V237.23H220.336V221.154ZM237.294 221.154H253.751V237.23H237.294V221.154ZM254.251 221.154H270.707V237.23H254.251V221.154ZM271.207 221.154H287.664V237.23H271.207V221.154ZM288.164 221.154H304.621V237.23H288.164V221.154ZM288.164 220.654V204.58H304.621V220.654H288.164ZM288.164 204.08V188.005H304.621V204.08H288.164ZM288.164 187.505V171.431H304.621V187.505H288.164ZM288.164 170.931V154.856H304.621V170.931H288.164ZM287.664 170.931H271.207V154.856H287.664V170.931ZM270.707 170.931H254.251V154.856H270.707V170.931ZM253.751 170.931H237.294V154.856H253.751V170.931ZM236.794 170.931H220.336V154.856H236.794V170.931ZM219.836 170.931H203.38V154.856H219.836V170.931ZM202.88 170.931H186.423V154.856H202.88V170.931ZM185.923 170.931H169.466V154.856H185.923V170.931ZM168.966 170.931H152.509V154.856H168.966V170.931ZM152.009 170.931H135.553V154.856H152.009V170.931ZM135.053 170.931H118.6V154.856H135.057L135.053 170.931ZM118.096 170.931H101.639V154.856H118.1L118.096 170.931ZM118.096 171.431V187.505H101.639V171.431H118.096ZM118.096 188.005V204.08H101.639V188.005H118.096ZM118.096 204.58V220.654H101.639V204.58H118.096ZM118.096 221.154V237.23H101.639V221.154H118.096ZM118.096 237.73V253.8H101.639V237.73H118.096ZM118.596 237.73H135.053V253.8H118.6L118.596 237.73ZM135.553 237.73H152.009V253.8H135.553V237.73ZM152.509 237.73H168.966V253.8H152.509V237.73ZM169.466 237.73H185.923V253.8H169.466V237.73ZM186.423 237.73H202.88V253.8H186.423V237.73ZM203.38 237.73H219.836V253.8H203.38V237.73ZM220.336 237.73H236.794V253.8H220.336V237.73ZM237.294 237.73H253.751V253.8H237.294V237.73ZM254.251 237.73H270.707V253.8H254.251V237.73ZM271.207 237.73H287.664V253.8H271.207V237.73ZM288.164 237.73H304.621V253.8H288.164V237.73ZM305.121 237.73H321.578V253.8H305.121V237.73ZM305.121 237.23V221.154H321.578V237.23H305.121ZM305.121 220.654V204.58H321.578V220.654H305.121ZM305.121 204.08V188.005H321.578V204.08H305.121ZM305.121 187.505V171.431H321.578V187.505H305.121ZM305.121 170.931V154.856H321.578V170.931H305.121ZM304.621 138.281V154.356H288.164V138.281H304.621ZM287.664 138.281V154.356H271.207V138.281H287.664ZM270.707 138.281V154.356H254.251V138.281H270.707ZM253.751 138.281V154.356H237.294V138.281H253.751ZM236.794 138.281V154.356H220.336V138.281H236.794ZM219.836 138.281V154.356H203.38V138.281H219.836ZM202.88 138.281V154.356H186.423V138.281H202.88ZM185.923 138.281V154.356H169.466V138.281H185.923ZM168.966 138.281V154.356H152.509V138.281H168.966ZM152.009 138.281V154.356H135.553V138.281H152.009ZM135.053 138.281V154.356H118.6V138.281H135.053ZM118.096 138.281V154.356H101.639V138.281H118.096ZM84.683 138.281H101.139V154.356H84.683V138.281ZM84.683 154.856H101.139V170.931H84.683V154.856ZM84.683 171.431H101.139V187.505H84.683V171.431ZM84.683 188.005H101.139V204.08H84.683V188.005ZM84.683 204.58H101.139V220.654H84.683V204.58ZM84.683 221.154H101.139V237.23H84.683V221.154ZM84.683 237.73H101.139V253.8H84.683V237.73ZM84.683 270.379V254.3H101.139V270.375L84.683 270.379ZM101.639 270.379V254.3H118.1V270.375L101.639 270.379ZM118.596 270.379V254.3H135.053V270.375L118.596 270.379ZM135.553 270.379V254.3H152.009V270.375L135.553 270.379ZM152.509 270.379V254.3H168.966V270.375L152.509 270.379ZM169.466 270.379V254.3H185.923V270.375L169.466 270.379ZM186.423 270.379V254.3H202.88V270.375L186.423 270.379ZM203.38 270.379V254.3H219.836V270.375L203.38 270.379ZM220.336 270.379V254.3H236.794V270.375L220.336 270.379ZM237.294 270.379V254.3H253.751V270.375L237.294 270.379ZM254.251 270.379V254.3H270.707V270.375L254.251 270.379ZM271.207 270.379V254.3H287.664V270.375L271.207 270.379ZM288.164 270.379V254.3H304.621V270.375L288.164 270.379ZM305.121 270.379V254.3H321.578V270.375L305.121 270.379ZM338.534 270.379H322.078V254.3H338.534V270.379ZM338.534 253.804H322.078V237.73H338.534V253.804ZM338.534 237.23H322.078V221.154H338.534V237.23ZM338.534 220.654H322.078V204.58H338.534V220.654ZM338.534 204.08H322.078V188.005H338.534V204.08ZM338.534 187.505H322.078V171.431H338.534V187.505ZM338.534 170.931H322.078V154.856H338.534V170.931ZM338.534 154.356H322.078V138.281H338.534V154.356Z" fill="#D4EBFA"/>
<path d="M328.525 148.878L304.628 153.994L310.647 160.66L243.13 209.35L230.46 194.952L214.75 208.979L196.761 183.683L164.765 205.394L151.739 189.998L82.222 277.878L86.144 280.98L151.87 197.893L163.853 212.056L195.521 190.568L213.912 216.43L230.034 202.036L242.374 216.059L314.017 164.392L321.006 172.132L328.525 148.878Z" fill="#F78C1E"/>
<path d="M86.554 284.492L78.71 278.292L151.673 186.055L165.221 202.067L197.381 180.245L215.168 205.257L230.668 191.414L243.507 206L306.921 160.269L299.87 152.461L332.236 145.532L322.053 177.032L313.663 167.74L242 219.413L229.825 205.577L213.497 220.156L194.9 194.01L163.4 215.387L151.935 201.84L86.554 284.492ZM85.734 277.468L151.804 193.946L85.734 277.468ZM196.141 187.125L214.331 212.704L230.247 198.493L214.331 212.7L196.141 187.121L164.309 208.721L196.141 187.125ZM314.373 161.055L319.959 167.243L324.814 152.23L309.385 155.53L314.373 161.055Z" fill="#F78C1E"/>
<path d="M282.441 126.851C284.019 126.851 285.298 125.572 285.298 123.994C285.298 122.416 284.019 121.137 282.441 121.137C280.863 121.137 279.584 122.416 279.584 123.994C279.584 125.572 280.863 126.851 282.441 126.851Z" fill="white"/>
<path d="M293.053 126.851C294.631 126.851 295.91 125.572 295.91 123.994C295.91 122.416 294.631 121.137 293.053 121.137C291.475 121.137 290.196 122.416 290.196 123.994C290.196 125.572 291.475 126.851 293.053 126.851Z" fill="white"/>
<path d="M303.664 126.851C305.242 126.851 306.521 125.572 306.521 123.994C306.521 122.416 305.242 121.137 303.664 121.137C302.086 121.137 300.807 122.416 300.807 123.994C300.807 125.572 302.086 126.851 303.664 126.851Z" fill="white"/>
<path d="M282.365 273.693L266.99 284.092L280.849 304.584L296.225 294.185L282.365 273.693Z" fill="#333333"/>
<path d="M299.386 180.154C291.004 167.769 279.138 158.148 265.288 152.508C251.439 146.867 236.227 145.46 221.578 148.465C206.928 151.47 193.499 158.751 182.988 169.388C172.477 180.025 165.356 193.541 162.526 208.225C159.697 222.909 161.285 238.103 167.09 251.884C172.896 265.666 182.658 277.416 195.142 285.65C207.625 293.883 222.27 298.23 237.224 298.14C252.179 298.05 266.77 293.527 279.154 285.144C295.739 273.888 307.183 256.514 310.976 236.832C314.768 217.15 310.6 196.767 299.386 180.154V180.154ZM271.302 273.554C261.211 280.38 249.323 284.061 237.141 284.132C224.958 284.202 213.028 280.658 202.859 273.948C192.691 267.239 184.74 257.665 180.013 246.436C175.285 235.208 173.993 222.83 176.3 210.868C178.607 198.906 184.409 187.896 192.973 179.231C201.537 170.566 212.478 164.635 224.412 162.188C236.347 159.741 248.739 160.888 260.022 165.483C271.305 170.079 280.972 177.917 287.8 188.006C296.937 201.544 300.331 218.153 297.238 234.191C294.145 250.228 284.817 264.383 271.3 273.552L271.302 273.554Z" fill="#333333"/>
<path d="M330.013 352.129C329.285 352.874 328.485 353.544 327.623 354.129L325.183 355.779C321.833 358.046 317.719 358.89 313.747 358.125C309.775 357.36 306.269 355.049 304 351.7L279.68 315.76C277.416 312.41 276.575 308.298 277.342 304.328C278.109 300.358 280.421 296.855 283.77 294.59L286.21 292.94C287.087 292.345 288.026 291.845 289.01 291.45C292.246 290.128 295.838 289.96 299.184 290.974C302.529 291.989 305.423 294.123 307.38 297.02L331.7 332.95C333.664 335.854 334.569 339.346 334.261 342.839C333.954 346.332 332.454 349.612 330.013 352.129V352.129Z" fill="#F78C1E"/>
<path d="M330.013 352.129C329.285 352.874 328.485 353.544 327.623 354.129L325.183 355.779C321.833 358.046 317.719 358.89 313.747 358.125C309.775 357.36 306.269 355.049 304 351.7L279.68 315.76C277.416 312.41 276.575 308.298 277.342 304.328C278.109 300.358 280.421 296.855 283.77 294.59L286.21 292.94C287.087 292.345 288.026 291.845 289.01 291.45C287.336 294.274 286.501 297.517 286.602 300.798C286.703 304.079 287.736 307.264 289.58 309.98L313.08 344.71C314.916 347.417 317.48 349.551 320.476 350.863C323.472 352.176 326.778 352.615 330.013 352.129V352.129Z" fill="#333333"/>
<path d="M163.175 83.108H63.173C60.997 83.108 59.233 84.872 59.233 87.048V154.322C59.233 156.498 60.997 158.262 63.173 158.262H163.175C165.351 158.262 167.115 156.498 167.115 154.322V87.048C167.115 84.872 165.351 83.108 163.175 83.108Z" fill="white"/>
<path d="M163.175 83.108C164.22 83.108 165.222 83.5231 165.961 84.262C166.7 85.0009 167.115 86.003 167.115 87.048V154.321C167.115 155.366 166.7 156.368 165.961 157.107C165.222 157.846 164.22 158.261 163.175 158.261H63.175C62.13 158.261 61.1279 157.846 60.389 157.107C59.6501 156.368 59.235 155.366 59.235 154.321V87.048C59.235 86.003 59.6501 85.0009 60.389 84.262C61.1279 83.5231 62.13 83.108 63.175 83.108H163.175ZM163.175 80.108H63.175C61.335 80.1101 59.571 80.842 58.27 82.143C56.969 83.4441 56.2371 85.208 56.235 87.048V154.321C56.2371 156.161 56.969 157.925 58.27 159.226C59.571 160.527 61.335 161.259 63.175 161.261H163.175C165.015 161.259 166.779 160.527 168.08 159.226C169.381 157.925 170.113 156.161 170.115 154.321V87.048C170.113 85.208 169.381 83.4441 168.08 82.143C166.779 80.842 165.015 80.1101 163.175 80.108Z" fill="#066487"/>
<path d="M63.173 83.108H163.173C164.218 83.108 165.22 83.5231 165.959 84.262C166.698 85.0009 167.113 86.003 167.113 87.048V91.048H59.233V87.048C59.233 86.003 59.6481 85.0009 60.387 84.262C61.1259 83.5231 62.1281 83.108 63.173 83.108V83.108Z" fill="#F78C1E"/>
<path d="M81.476 132.422H68.382V153.702H81.476V132.422Z" fill="#333333"/>
<path d="M119.721 127.553H106.627V153.702H119.721V127.553Z" fill="#333333"/>
<path d="M157.967 115.399H144.873V153.701H157.967V115.399Z" fill="#333333"/>
<path d="M100.598 118.589H87.504V153.701H100.598V118.589Z" fill="#333333"/>
<path d="M138.844 102.935H125.75V153.701H138.844V102.935Z" fill="#333333"/>
<path d="M149.904 89.057C150.757 89.057 151.448 88.3657 151.448 87.513C151.448 86.6603 150.757 85.969 149.904 85.969C149.051 85.969 148.36 86.6603 148.36 87.513C148.36 88.3657 149.051 89.057 149.904 89.057Z" fill="white"/>
<path d="M155.638 89.057C156.491 89.057 157.182 88.3657 157.182 87.513C157.182 86.6603 156.491 85.969 155.638 85.969C154.785 85.969 154.094 86.6603 154.094 87.513C154.094 88.3657 154.785 89.057 155.638 89.057Z" fill="white"/>
<path d="M161.372 89.057C162.225 89.057 162.916 88.3657 162.916 87.513C162.916 86.6603 162.225 85.969 161.372 85.969C160.519 85.969 159.828 86.6603 159.828 87.513C159.828 88.3657 160.519 89.057 161.372 89.057Z" fill="white"/>
<path d="M195.609 301.528H109.65C107.474 301.528 105.71 303.292 105.71 305.468V362.959C105.71 365.135 107.474 366.899 109.65 366.899H195.609C197.785 366.899 199.549 365.135 199.549 362.959V305.468C199.549 303.292 197.785 301.528 195.609 301.528Z" fill="white"/>
<path d="M196.123 301.528C197.032 301.528 197.904 301.889 198.546 302.532C199.189 303.174 199.55 304.046 199.55 304.955V363.472C199.55 364.381 199.189 365.253 198.546 365.895C197.904 366.538 197.032 366.899 196.123 366.899H109.138C108.229 366.899 107.357 366.538 106.715 365.895C106.072 365.253 105.711 364.381 105.711 363.472V304.955C105.711 304.046 106.072 303.174 106.715 302.532C107.357 301.889 108.229 301.528 109.138 301.528H196.123V301.528ZM196.123 298.919H109.138C107.538 298.921 106.003 299.557 104.871 300.689C103.739 301.82 103.103 303.355 103.101 304.955V363.472C103.103 365.073 103.739 366.607 104.871 367.739C106.003 368.871 107.537 369.507 109.138 369.509H196.123C197.723 369.507 199.258 368.87 200.389 367.739C201.521 366.607 202.157 365.072 202.159 363.472V304.955C202.157 303.355 201.521 301.821 200.389 300.689C199.257 299.557 197.723 298.921 196.123 298.919V298.919Z" fill="#066487"/>
<path d="M109.65 301.528H195.61C196.655 301.528 197.657 301.943 198.396 302.682C199.135 303.421 199.55 304.423 199.55 305.468V308.432H105.71V305.468C105.71 304.951 105.812 304.438 106.01 303.96C106.208 303.482 106.498 303.048 106.864 302.682C107.23 302.316 107.664 302.026 108.142 301.828C108.62 301.63 109.133 301.528 109.65 301.528Z" fill="#F78C1E"/>
<path d="M184.579 306.703C185.321 306.703 185.922 306.102 185.922 305.36C185.922 304.618 185.321 304.017 184.579 304.017C183.837 304.017 183.236 304.618 183.236 305.36C183.236 306.102 183.837 306.703 184.579 306.703Z" fill="white"/>
<path d="M189.567 306.703C190.309 306.703 190.91 306.102 190.91 305.36C190.91 304.618 190.309 304.017 189.567 304.017C188.825 304.017 188.224 304.618 188.224 305.36C188.224 306.102 188.825 306.703 189.567 306.703Z" fill="white"/>
<path d="M194.554 306.703C195.296 306.703 195.897 306.102 195.897 305.36C195.897 304.618 195.296 304.017 194.554 304.017C193.812 304.017 193.211 304.618 193.211 305.36C193.211 306.102 193.812 306.703 194.554 306.703Z" fill="white"/>
<path d="M176.512 331.847L156.218 338.186L163.054 341.225L175.633 346.815C176.725 343.997 177.284 341 177.282 337.978C177.283 335.91 177.025 333.85 176.512 331.847Z" fill="#066487"/>
<path d="M153.9 313.358V336.258L175.76 329.43C174.102 324.897 171.144 320.954 167.255 318.095C163.367 315.236 158.721 313.588 153.9 313.358V313.358Z" fill="#333333"/>
<path d="M151.363 338.8V313.358C147.038 313.578 142.847 314.933 139.212 317.288C135.577 319.643 132.627 322.913 130.658 326.771C128.689 330.628 127.771 334.936 127.997 339.261C128.222 343.586 129.583 347.775 131.942 351.407C134.301 355.039 137.575 357.985 141.435 359.949C145.295 361.913 149.604 362.826 153.929 362.595C158.253 362.364 162.441 360.998 166.07 358.635C169.699 356.271 172.641 352.993 174.6 349.131L151.363 338.8Z" fill="#333333"/>
<path d="M158.051 115.299C158.904 115.299 159.595 114.608 159.595 113.755C159.595 112.902 158.904 112.211 158.051 112.211C157.198 112.211 156.507 112.902 156.507 113.755C156.507 114.608 157.198 115.299 158.051 115.299Z" fill="white"/>
<path d="M269.571 82.584C263.177 82.036 258.487 79.6 255.199 76.251L259.888 69.674C262.473 72.4094 265.867 74.2448 269.571 74.911V65.289C263.298 63.706 256.479 61.389 256.479 53.11C256.479 46.96 261.35 41.723 269.571 40.871V35.207H275.356V40.992C279.951 41.4276 284.284 43.3276 287.718 46.412L282.907 52.746C280.765 50.8094 278.167 49.4473 275.356 48.787V57.374C281.628 58.957 288.631 61.392 288.631 69.674C288.631 76.434 284.247 81.609 275.356 82.523V88.065H269.571V82.584ZM269.571 55.851V48.422C266.831 48.787 265.308 50.31 265.308 52.38C265.308 54.146 267.014 55.12 269.571 55.851ZM275.356 66.751V74.911C278.34 74.302 279.862 72.536 279.862 70.649C279.862 68.639 277.974 67.6 275.356 66.751V66.751Z" fill="white"/>
<path d="M36.461 221.124H34.5V218.206H35.92C35.882 217.821 35.882 217.436 35.882 217.014C35.882 216.592 35.882 216.132 35.92 215.714H34.5V212.833H36.5C38.189 207.3 43.3 203.766 49.521 203.766C51.7139 203.703 53.8805 204.256 55.7746 205.363C57.6687 206.47 59.2144 208.086 60.236 210.027L55.551 212.333C54.9731 211.228 54.1082 210.298 53.0471 209.643C51.9861 208.987 50.7681 208.629 49.521 208.607C48.0658 208.582 46.6325 208.964 45.3833 209.711C44.134 210.458 43.1187 211.539 42.452 212.833H51.863V215.714H41.572C41.5074 216.144 41.4813 216.579 41.494 217.014C41.4984 217.412 41.5244 217.81 41.572 218.206H51.865V221.124H42.416C43.0716 222.44 44.0877 223.543 45.3459 224.305C46.6041 225.066 48.0527 225.454 49.523 225.424C50.7717 225.409 51.9928 225.055 53.0552 224.399C54.1176 223.742 54.9811 222.809 55.553 221.699L60.238 223.963C59.2157 225.907 57.671 227.526 55.7779 228.639C53.8848 229.752 51.7185 230.315 49.523 230.263C43.261 230.266 38.153 226.694 36.461 221.124Z" fill="white"/>
<path d="M358.7 221.836H361.33C360.236 220.533 359.61 218.9 359.552 217.199C359.552 212.292 364.343 209.199 368.939 209.199C373.189 209.199 376.239 210.706 377.902 213.874L373.535 216.422C373.23 215.622 372.692 214.932 371.989 214.443C371.287 213.954 370.453 213.687 369.597 213.679C367.316 213.679 365.539 215.11 365.539 217.312C365.539 219.243 366.545 220.439 367.432 221.832H372.997V224.959H368.631C368.631 225.192 368.669 225.459 368.669 225.695C368.65 226.56 368.413 227.406 367.981 228.155C367.549 228.905 366.935 229.533 366.196 229.983C366.81 229.799 367.449 229.708 368.09 229.712C370.33 229.712 371.179 230.986 373.111 230.986C373.738 231.019 374.363 230.907 374.94 230.659C375.516 230.412 376.028 230.035 376.436 229.558L378.597 233.925C377.555 235.004 375.74 235.856 372.919 235.856C369.556 235.856 368.282 234.156 365.926 234.156C364.336 234.282 362.799 234.786 361.443 235.625L359.59 231.879C361.984 230.718 363.802 229.019 363.802 227.05C363.785 226.33 363.627 225.62 363.337 224.961H358.7V221.836Z" fill="white"/>
</g>
<defs>
<clipPath id="clip0">
<rect width="426.882" height="404.716" fill="white"/>
</clipPath>
</defs>
</svg>
